# xmcd
#
# Track frame offsets:
#	150
#	24074
#	43389
#	67062
#	114885
#	139096
#	163250
#	208446
#	239479
#	264059
#
# Disc length: 3846 seconds
#
# Revision: 3
# Processed by: cddbd v1.5.2PL0 Copyright (c) Steve Scherf et al.
# Submitted via: audiograbber 1.83.01
#
DISCID=8f0f040a
DTITLE=Julian Sas - Dedication [CD 1)
DYEAR=2005
DGENRE=Blues
TTITLE0=Helpin'Hand
TTITLE1=Lost Again
TTITLE2=High And Low
TTITLE3=Blues For J
TTITLE4=The One To Blame
TTITLE5=Morning Rain
TTITLE6=Driftin'Boogie
TTITLE7=That's Enough For Me 
TTITLE8=Think About It 
TTITLE9=I Believe To My Soul
EXTD=
EXTT0=
EXTT1=
EXTT2=
EXTT3=
EXTT4=
EXTT5=
EXTT6=
EXTT7=
EXTT8=
EXTT9=
PLAYORDER=
